<?xml version="1.0"?>
<!DOCTYPE svg PUBLIC "-//W3C//DTD SVG 1.1//EN" "http://www.w3.org/Graphics/SVG/1.1/DTD/svg11.dtd">
<svg xmlns="http://www.w3.org/2000/svg" xmlns:xl="http://www.w3.org/1999/xlink" version="1.1" viewBox="0 0 48 48" width="4pc" height="4pc"><metadata xmlns:dc="http://purl.org/dc/elements/1.1/"><dc:date>2015-01-30 13:32Z</dc:date><!-- Produced by OmniGraffle Professional 5.3 --></metadata><defs></defs><g stroke="none" stroke-opacity="1" stroke-dasharray="none" fill="none" fill-opacity="1"><title>Arbeitsfläche 1</title><g><title>Ebene 1</title><path d="M 13.600005 31.000004 C 39.700005 31.000004 13.600005 2 13.600005 2 C 13.600005 2 -12.499998 31.000004 13.600005 31.000004 Z" fill="#c70500"/><path d="M 13.600005 31.000004 C 39.700005 31.000004 13.600005 2 13.600005 2 C 13.600005 2 -12.499998 31.000004 13.600005 31.000004 Z" stroke="#4e4e4e" stroke-linecap="round" stroke-linejoin="round" stroke-width="4"/><path d="M 11.4250174 27.375004 C 21.212509 27.375004 9.250002 15.7750025 9.250002 15.775005 L 7.0750017 18.675005 C 7.0750074 18.675005 1.6375084 27.375004 11.4250174 27.375004 Z" fill="white"/></g><g><title>Apfel</title><ellipse cx="30.051285" cy="30.615387" rx="14.820537" ry="14.384641" fill="#26a415"/><ellipse cx="30.051285" cy="30.615387" rx="14.820537" ry="14.384641" stroke="black" stroke-linecap="round" stroke-linejoin="round" stroke-width="4"/><path d="M 37.048744 13.181496 C 36.237103 15.268212 34.443138 18.37545 33.04181 20.121708 C 31.640472 21.867977 31.162437 21.591984 31.974083 19.505257 C 32.785725 17.418541 34.57969 14.311302 35.981018 12.5650444 C 37.382355 10.818775 37.86039 11.0947695 37.048744 13.181496" fill="white"/><path d="M 37.048744 13.181496 C 36.237103 15.268212 34.443138 18.37545 33.04181 20.121708 C 31.640472 21.867977 31.162437 21.591984 31.974083 19.505257 C 32.785725 17.418541 34.57969 14.311302 35.981018 12.5650444 C 37.382355 10.818775 37.86039 11.0947695 37.048744 13.181496" stroke="black" stroke-linecap="round" stroke-linejoin="round" stroke-width="4"/><path d="M 28.350546 24.907364 C 28.323162 27.541622 26.462675 30.764078 24.195032 32.104923 C 21.927387 33.445782 20.111309 32.39727 20.138704 29.763 C 20.166088 27.128742 22.026575 23.906286 24.294218 22.565441 C 26.561863 21.224583 28.377941 22.273096 28.350546 24.907364" fill="white"/></g></g></svg>
