<?xml version="1.0"?>
<!DOCTYPE svg PUBLIC "-//W3C//DTD SVG 1.1//EN" "http://www.w3.org/Graphics/SVG/1.1/DTD/svg11.dtd">
<svg xmlns="http://www.w3.org/2000/svg" xmlns:xl="http://www.w3.org/1999/xlink" version="1.1" viewBox="0 0 48 48" width="4pc" height="4pc"><metadata xmlns:dc="http://purl.org/dc/elements/1.1/"><dc:date>2015-01-30 13:14Z</dc:date><!-- Produced by OmniGraffle Professional 5.3 --></metadata><defs></defs><g stroke="none" stroke-opacity="1" stroke-dasharray="none" fill="none" fill-opacity="1"><title>Arbeitsfläche 1</title><g><title>Ebene 1</title><path d="M 21.000004 44.000004 C 57.000004 44.000004 21.000004 4 21.000004 4 C 21.000004 4 -15 44.000004 21.000004 44.000004 Z" fill="#c70500"/><path d="M 21.000004 44.000004 C 57.000004 44.000004 21.000004 4 21.000004 4 C 21.000004 4 -15 44.000004 21.000004 44.000004 Z" stroke="black" stroke-linecap="round" stroke-linejoin="round" stroke-width="4"/><path d="M 18.000021 39 C 31.500008 39 14.999999 22.999996 14.999999 23 L 11.999999 27 C 12.0000076 27 4.5000086 39 18.000021 39 Z" fill="white"/><rect x="32.4375" y="9.4375" width="13" height=".125" fill="white"/><rect x="32.4375" y="9.4375" width="13" height=".125" stroke="black" stroke-linecap="round" stroke-linejoin="round" stroke-width="4"/><rect x="38.875" y="3" width=".125" height="13" fill="white"/><rect x="38.875" y="3" width=".125" height="13" stroke="black" stroke-linecap="round" stroke-linejoin="round" stroke-width="4"/></g></g></svg>
