<?xml version="1.0"?>
<!DOCTYPE svg PUBLIC "-//W3C//DTD SVG 1.1//EN" "http://www.w3.org/Graphics/SVG/1.1/DTD/svg11.dtd">
<svg xmlns="http://www.w3.org/2000/svg" xmlns:xl="http://www.w3.org/1999/xlink" version="1.1" viewBox="0 0 48 48" width="4pc" height="4pc"><metadata xmlns:dc="http://purl.org/dc/elements/1.1/"><dc:date>2015-01-30 13:01Z</dc:date><!-- Produced by OmniGraffle Professional 5.3 --></metadata><defs></defs><g stroke="none" stroke-opacity="1" stroke-dasharray="none" fill="none" fill-opacity="1"><title>Arbeitsfläche 1</title><g><title>Apfel</title><path d="M 13.600005 31.000004 C 39.700005 31.000004 13.600005 2 13.600005 2 C 13.600005 2 -12.499998 31.000004 13.600005 31.000004 Z" fill="#c70500"/><path d="M 13.600005 31.000004 C 39.700005 31.000004 13.600005 2 13.600005 2 C 13.600005 2 -12.499998 31.000004 13.600005 31.000004 Z" stroke="#4e4e4e" stroke-linecap="round" stroke-linejoin="round" stroke-width="4"/><path d="M 11.4250174 27.375004 C 21.212509 27.375004 9.250002 15.7750025 9.250002 15.775005 L 7.0750017 18.675005 C 7.0750074 18.675005 1.6375084 27.375004 11.4250174 27.375004 Z" fill="white"/></g><g><title>Ebene 1</title><path d="M 24.678919 22.392658 L 33.607353 31.32109 L 21.10755 43.820896 L 12.179115 34.892464 Z" fill="yellow"/><path d="M 14.069835 37.485653 L 18.514347 41.930172 C 20.076445 43.492271 22.609104 43.492268 24.171202 41.930172 L 38.717098 27.384281 C 40.279198 25.822184 40.279194 23.289524 38.717098 21.727427 C 38.717098 21.727427 38.717098 21.727427 38.717098 21.727427 L 34.272587 17.282913 C 32.710491 15.720817 30.17783 15.720815 28.615732 17.282911 L 14.0698376 31.828798 C 12.50774 33.390896 12.507739 35.923553 14.069836 37.485653 Z" stroke="black" stroke-linecap="round" stroke-linejoin="round" stroke-width="4"/><path d="M 36.898647 8.9999943 L 47.00002 19.10137 L 44.474674 21.626715 L 34.373302 11.525339 Z" fill="black"/><path d="M 36.898647 8.9999943 L 47.00002 19.10137 L 44.474674 21.626715 L 34.373302 11.525339 Z" stroke="black" stroke-linecap="round" stroke-linejoin="round" stroke-width="1"/><path d="M 37.940895 16.165092 L 39.834904 18.059101 L 37.574097 20.319908 L 35.680088 18.4259 Z" fill="black"/><path d="M 37.940895 16.165092 L 39.834904 18.059101 L 37.574097 20.319908 L 35.680088 18.4259 Z" stroke="black" stroke-linecap="round" stroke-linejoin="round" stroke-width="1"/><path d="M 15.345085 38.760921 L 17.23909 40.65493 L 10.894005 47.000011 L 9 45.106003 Z" fill="black"/><path d="M 15.345085 38.760921 L 17.23909 40.65493 L 10.894005 47.000011 L 9 45.106003 Z" stroke="black" stroke-linecap="round" stroke-linejoin="round" stroke-width="1"/></g></g></svg>
