<?xml version="1.0"?>
<!DOCTYPE svg PUBLIC "-//W3C//DTD SVG 1.1//EN" "http://www.w3.org/Graphics/SVG/1.1/DTD/svg11.dtd">
<svg xmlns="http://www.w3.org/2000/svg" xmlns:xl="http://www.w3.org/1999/xlink" version="1.1" viewBox="0 0 48 48" width="4pc" height="4pc"><metadata xmlns:dc="http://purl.org/dc/elements/1.1/"><dc:date>2015-01-30 12:51Z</dc:date><!-- Produced by OmniGraffle Professional 5.3 --></metadata><defs></defs><g stroke="none" stroke-opacity="1" stroke-dasharray="none" fill="none" fill-opacity="1"><title>Arbeitsfläche 1</title><g><title>Apfel</title><ellipse cx="15.153847" cy="18.730766" rx="12.6410456" ry="12.269252" fill="#26a415"/><ellipse cx="15.153847" cy="18.730766" rx="12.6410456" ry="12.269252" stroke="#484848" stroke-linecap="round" stroke-linejoin="round" stroke-width="4"/><path d="M 21.122267 3.8606868 C 20.429987 5.6405334 18.899841 8.290824 17.704588 9.780279 C 16.509331 11.269744 16.101595 11.034337 16.793882 9.254482 C 17.486162 7.474636 19.016308 4.8243456 20.211561 3.3348904 C 21.406818 1.8454256 21.814554 2.0808325 21.122267 3.8606868" fill="white"/><path d="M 21.122267 3.8606868 C 20.429987 5.6405334 18.899841 8.290824 17.704588 9.780279 C 16.509331 11.269744 16.101595 11.034337 16.793882 9.254482 C 17.486162 7.474636 19.016308 4.8243456 20.211561 3.3348904 C 21.406818 1.8454256 21.814554 2.0808325 21.122267 3.8606868" stroke="#565656" stroke-linecap="round" stroke-linejoin="round" stroke-width="4"/><path d="M 13.703222 13.862167 C 13.679865 16.1090355 12.0929794 18.857603 10.1588135 20.001265 C 8.2246466 21.14494 6.675638 20.250618 6.6990056 18.003744 C 6.7223625 15.756875 8.309248 13.008309 10.243414 11.864647 C 12.177581 10.720972 13.726589 11.6152935 13.703222 13.862167" fill="white"/></g><g><title>Ebene 1</title><path d="M 23.678919 21.392658 L 32.607353 30.32109 L 20.10755 42.820896 L 11.179115 33.892464 Z" fill="yellow"/><path d="M 13.069835 36.485653 L 17.514347 40.930172 C 19.076445 42.492271 21.609104 42.492268 23.171202 40.930172 L 37.717098 26.384281 C 39.279198 24.822184 39.279194 22.289524 37.717098 20.727427 C 37.717098 20.727427 37.717098 20.727427 37.717098 20.727427 L 33.272587 16.282913 C 31.71049 14.720817 29.17783 14.720815 27.615732 16.282911 L 13.0698376 30.828798 C 11.50774 32.390896 11.507739 34.923553 13.069836 36.485653 Z" stroke="black" stroke-linecap="round" stroke-linejoin="round" stroke-width="4"/><path d="M 35.898647 7.9999948 L 46.00002 18.10137 L 43.474674 20.626715 L 33.373302 10.525339 Z" fill="black"/><path d="M 35.898647 7.9999948 L 46.00002 18.10137 L 43.474674 20.626715 L 33.373302 10.525339 Z" stroke="black" stroke-linecap="round" stroke-linejoin="round" stroke-width="1"/><path d="M 36.940895 15.1650925 L 38.834904 17.059101 L 36.574097 19.319908 L 34.680088 17.4259 Z" fill="black"/><path d="M 36.940895 15.1650925 L 38.834904 17.059101 L 36.574097 19.319908 L 34.680088 17.4259 Z" stroke="black" stroke-linecap="round" stroke-linejoin="round" stroke-width="1"/><path d="M 14.345085 37.760921 L 16.23909 39.65493 L 9.894005 46.000011 L 8 44.106003 Z" fill="black"/><path d="M 14.345085 37.760921 L 16.23909 39.65493 L 9.894005 46.000011 L 8 44.106003 Z" stroke="black" stroke-linecap="round" stroke-linejoin="round" stroke-width="1"/></g></g></svg>
