<?xml version="1.0"?>
<!DOCTYPE svg PUBLIC "-//W3C//DTD SVG 1.1//EN" "http://www.w3.org/Graphics/SVG/1.1/DTD/svg11.dtd">
<svg xmlns="http://www.w3.org/2000/svg" xmlns:xl="http://www.w3.org/1999/xlink" version="1.1" viewBox="0 0 48 48" width="4pc" height="4pc"><metadata xmlns:dc="http://purl.org/dc/elements/1.1/"><dc:date>2015-01-30 13:33Z</dc:date><!-- Produced by OmniGraffle Professional 5.3 --></metadata><defs></defs><g stroke="none" stroke-opacity="1" stroke-dasharray="none" fill="none" fill-opacity="1"><title>Arbeitsfläche 1</title><g><title>Ebene 1</title><path d="M 20 18 L 30 28 L 16 42 L 6 32 Z" fill="yellow"/><path d="M 7.778183 34.564964 L 13.435028 40.221813 C 14.997125 41.783913 17.529785 41.78391 19.091883 40.221813 L 36.06245 23.251253 C 37.62455 21.689156 37.624546 19.156496 36.06245 17.594398 C 36.06245 17.594398 36.06245 17.594398 36.06245 17.594398 L 30.405603 11.9375525 C 28.843506 10.375456 26.310848 10.375455 24.74875 11.9375515 L 7.778185 28.90811 C 6.2160873 30.470207 6.216087 33.002865 7.7781835 34.564964 C 7.778184 34.564964 7.7781835 34.564964 7.778184 34.564964 Z" stroke="black" stroke-linecap="round" stroke-linejoin="round" stroke-width="4"/><path d="M 33.686302 3.0000005 L 45 14.3137054 L 42.17157 17.142132 L 30.857872 5.828427 Z" fill="black"/><path d="M 33.686302 3.0000005 L 45 14.3137054 L 42.17157 17.142132 L 30.857872 5.828427 Z" stroke="black" stroke-linecap="round" stroke-linejoin="round" stroke-width="1"/><path d="M 34.853642 11.025032 L 36.974957 13.146352 L 34.442814 15.6784935 L 32.321499 13.557174 Z" fill="black"/><path d="M 34.853642 11.025032 L 36.974957 13.146352 L 34.442814 15.6784935 L 32.321499 13.557174 Z" stroke="black" stroke-linecap="round" stroke-linejoin="round" stroke-width="1"/><path d="M 9.5459404 36.332733 L 11.667259 38.454052 L 4.5606565 45.560654 L 2.4393382 43.439335 Z" fill="black"/><path d="M 9.5459404 36.332733 L 11.667259 38.454052 L 4.5606565 45.560654 L 2.4393382 43.439335 Z" stroke="black" stroke-linecap="round" stroke-linejoin="round" stroke-width="1"/></g></g></svg>
