<?xml version="1.0"?>
<!DOCTYPE svg PUBLIC "-//W3C//DTD SVG 1.1//EN" "http://www.w3.org/Graphics/SVG/1.1/DTD/svg11.dtd">
<svg xmlns="http://www.w3.org/2000/svg" xmlns:xl="http://www.w3.org/1999/xlink" version="1.1" viewBox="0 0 48 48" width="4pc" height="4pc"><metadata xmlns:dc="http://purl.org/dc/elements/1.1/"><dc:date>2015-01-30 12:39Z</dc:date><!-- Produced by OmniGraffle Professional 5.3 --></metadata><defs><filter id="Shadow" filterUnits="userSpaceOnUse"><feGaussianBlur in="SourceAlpha" result="blur" stdDeviation="3.488"/><feOffset in="blur" result="offset" dx="0" dy="4"/><feFlood flood-color="black" flood-opacity=".75" result="flood"/><feComposite in="flood" in2="offset" operator="in"/></filter></defs><g stroke="none" stroke-opacity="1" stroke-dasharray="none" fill="none" fill-opacity="1"><title>Arbeitsfläche 1</title><g><title>Ebene 1</title><g><use xl:href="#id51_Graphic" filter="url(#Shadow)"/><use xl:href="#id52_Graphic" filter="url(#Shadow)"/></g><ellipse cx="24.128204" cy="26.807695" rx="18.743618" ry="18.192337" fill="#26a415"/><ellipse cx="24.128204" cy="26.807695" rx="18.743618" ry="18.192337" stroke="black" stroke-linecap="round" stroke-linejoin="round" stroke-width="4"/><g id="id51_Graphic"><path d="M 32.977928 4.7589483 C 31.951443 7.3980317 29.682604 11.327774 27.910334 13.536278 C 26.138058 15.744795 25.533482 15.395742 26.559975 12.756648 C 27.58646 10.117565 29.855299 6.1878223 31.62757 3.9793186 C 33.399845 1.770802 34.004421 2.1198535 32.977928 4.7589483" fill="white"/><path d="M 32.977928 4.7589483 C 31.951443 7.3980317 29.682604 11.327774 27.910334 13.536278 C 26.138058 15.744795 25.533482 15.395742 26.559975 12.756648 C 27.58646 10.117565 29.855299 6.1878223 31.62757 3.9793186 C 33.399845 1.770802 34.004421 2.1198535 32.977928 4.7589483" stroke="black" stroke-linecap="round" stroke-linejoin="round" stroke-width="4"/></g><g id="id52_Graphic"><path d="M 21.977278 19.588722 C 21.942646 22.920286 19.589678 26.995747 16.721775 28.69152 C 13.853872 30.387314 11.557067 29.061253 11.591715 25.729679 C 11.6263475 22.398115 13.979316 18.322655 16.847218 16.626881 C 19.71512 14.9310884 22.011925 16.257149 21.977278 19.588722" fill="white"/></g></g></g></svg>
